<svg width="48" height="48" viewBox="0 0 48 48" fill="none" xmlns="http://www.w3.org/2000/svg">
<path d="M0 27.2727L25.0909 42L18 48L0 27.2727Z" fill="#306699"/>
<path d="M13.0909 35.4545L25.0909 42L18 48L13.0909 35.4545Z" fill="#294F7F"/>
<path d="M24 0L41.1581 18H13.6364L24 0Z" fill="#DFECF3"/>
<path d="M16.3636 4.36363L30 18H6.54547L16.3636 4.36363Z" fill="#8CB9D5"/>
<path d="M6.54545 18H41.1307L48 25.0909L31.6364 46.9091L0 27.2727L6.54545 18Z" fill="#306699"/>
<path d="M6.54545 18H14.9148L13.0909 35.4545L0 27.2727L6.54545 18Z" fill="#3C72A5"/>
<path d="M31.6364 32.7273L48 25.0909L31.6364 46.9091V32.7273Z" fill="#294F7F"/>
<path d="M48 25.0909L31.6364 32.7273L23.4545 18H41.1477L48 25.0909Z" fill="#3C72A5"/>
<path d="M16.3636 4.36363L14.919 18H6.54547L16.3636 4.36363Z" fill="#DFECF3"/>
<path d="M24 0L41.1449 18H30L24 0Z" fill="#8CB9D5"/>
</svg>
